<?xml version="1.0" encoding="utf-8"?>
<!-- Generator: Adobe Illustrator 19.2.1, SVG Export Plug-In . SVG Version: 6.00 Build 0)  -->
<svg version="1.1" id="Layer_1" xmlns="http://www.w3.org/2000/svg" xmlns:xlink="http://www.w3.org/1999/xlink" x="0px" y="0px"
	 viewBox="0 0 320 90" style="enable-background:new 0 0 320 90;" xml:space="preserve">
<style type="text/css">
	.st0{fill:#FFFFFF;}
</style>
<g>
	<g>
		<path class="st0" d="M110.2,0.1v13.8h11.4V0.1h8v35.3h-8V20.5h-11.4v14.8h-8V0.1H110.2z"/>
		<path class="st0" d="M160.9,0.1v6.6h-15.2v7.5h10.2v6.5h-10.2v8h16v6.6h-23.9V0.1H160.9z"/>
		<path class="st0" d="M166.5,29.3c0.7,0.1,1.4,0.1,1.9,0.1c1.2,0,2.2-0.1,2.9-0.4c0.7-0.3,1.3-0.7,1.7-1.3c0.4-0.6,0.7-1.4,0.9-2.3
			c0.2-0.9,0.2-2.1,0.2-3.4V0.1h8v23.3c0,1.7-0.2,3.4-0.5,4.9c-0.3,1.5-0.9,2.9-1.9,4c-0.9,1.1-2.3,2-4,2.7c-1.7,0.7-4.1,1-6.9,1
			c-0.9,0-1.8-0.1-2.8-0.2c-1-0.2-1.8-0.4-2.4-0.7l1-6.2C165.1,29,165.8,29.2,166.5,29.3z"/>
		<path class="st0" d="M197.1,0h9.6l11,34.6v0.7h-8.2l-2.2-7.3h-11.5l-2.1,7.3h-7.6v-0.7L197.1,0z M201.6,8.5l-3.9,13.1h7.8
			L201.6,8.5z"/>
	</g>
	<g>
		<path class="st0" d="M32,56.2v4.6h3.8v-4.6h2.7V68h-2.7V63H32V68h-2.7V56.2H32z"/>
		<path class="st0" d="M43.5,67.9c-0.6-0.2-1.1-0.5-1.6-1c-0.4-0.5-0.8-1.1-1-1.9c-0.2-0.8-0.4-1.8-0.4-2.9c0-1.1,0.1-2.1,0.4-2.9
			c0.3-0.8,0.6-1.4,1.1-1.9c0.5-0.5,1-0.8,1.6-1c0.6-0.2,1.2-0.3,1.9-0.3c0.7,0,1.4,0.1,2,0.3c0.6,0.2,1.1,0.5,1.6,1
			c0.4,0.5,0.8,1.1,1,1.9c0.2,0.8,0.4,1.8,0.4,2.9c0,1.1-0.1,2.1-0.4,2.9c-0.3,0.8-0.6,1.4-1.1,1.9c-0.5,0.5-1,0.8-1.6,1
			c-0.6,0.2-1.2,0.3-1.9,0.3C44.8,68.2,44.1,68.1,43.5,67.9z M46.5,65.8c0.3-0.1,0.5-0.3,0.7-0.6c0.2-0.3,0.3-0.7,0.4-1.2
			c0.1-0.5,0.1-1.2,0.1-2c0-0.8,0-1.5-0.1-2c-0.1-0.5-0.2-0.9-0.4-1.2c-0.2-0.3-0.4-0.5-0.7-0.6s-0.6-0.2-1-0.2
			c-0.4,0-0.7,0.1-1,0.2s-0.5,0.3-0.7,0.6c-0.2,0.3-0.3,0.7-0.4,1.2c-0.1,0.5-0.1,1.2-0.1,2c0,0.8,0,1.5,0.1,2
			c0.1,0.5,0.2,0.9,0.4,1.2c0.2,0.3,0.4,0.5,0.7,0.6c0.3,0.1,0.6,0.2,1,0.2C45.9,66,46.2,65.9,46.5,65.8z"/>
		<path class="st0" d="M53.6,65.7c0.5,0.2,1,0.2,1.6,0.2c0.5,0,0.8-0.1,1.1-0.3c0.3-0.2,0.4-0.5,0.5-0.9c0-0.4-0.1-0.6-0.3-0.8
			c-0.2-0.2-0.5-0.4-0.8-0.5l-1.3-0.5c-0.8-0.3-1.5-0.7-1.9-1.3c-0.5-0.5-0.7-1.3-0.7-2.2c0-0.6,0.1-1.1,0.3-1.5
			c0.2-0.4,0.5-0.8,0.8-1.1c0.4-0.3,0.8-0.5,1.2-0.7c0.5-0.2,1-0.2,1.5-0.2c0.7,0,1.4,0.1,2,0.2c0.6,0.1,1.1,0.3,1.5,0.5l-0.7,2.1
			c-0.1-0.1-0.3-0.1-0.5-0.2c-0.2-0.1-0.4-0.2-0.7-0.2c-0.2-0.1-0.5-0.1-0.7-0.2c-0.2,0-0.5-0.1-0.7-0.1c-0.4,0-0.7,0.1-1,0.3
			c-0.2,0.2-0.4,0.4-0.4,0.8c0,0.4,0.1,0.6,0.3,0.8c0.2,0.2,0.5,0.4,0.9,0.5l1.5,0.6c0.7,0.3,1.3,0.7,1.7,1.2c0.4,0.5,0.6,1.1,0.6,2
			c0,0.6-0.1,1.2-0.3,1.6c-0.2,0.5-0.5,0.8-0.9,1.2c-0.4,0.3-0.8,0.6-1.4,0.7c-0.5,0.2-1.1,0.2-1.8,0.2c-0.8,0-1.5-0.1-2.2-0.3
			c-0.6-0.2-1.1-0.4-1.5-0.6l0.7-2C52.7,65.4,53.1,65.6,53.6,65.7z"/>
		<path class="st0" d="M65.9,56.2c1.4,0,2.4,0.3,3,1c0.7,0.6,1,1.6,1,2.8c0,1.3-0.3,2.2-1,2.9c-0.7,0.7-1.7,1-3,1h-1.6V68h-2.6V56.2
			H65.9z M66.1,61.6c0.2,0,0.4-0.1,0.6-0.2c0.2-0.1,0.3-0.3,0.4-0.5c0.1-0.2,0.1-0.5,0.1-0.8c0-0.3,0-0.6-0.1-0.8
			c-0.1-0.2-0.2-0.4-0.4-0.5c-0.2-0.1-0.4-0.2-0.6-0.2c-0.2,0-0.5-0.1-0.8-0.1h-1.1v3.3h1.1C65.6,61.7,65.9,61.7,66.1,61.6z"/>
		<path class="st0" d="M74.3,56.2V68h-2.7V56.2H74.3z"/>
		<path class="st0" d="M75.8,58.4v-2.2h8.7v2.2h-3.1V68h-2.7v-9.5H75.8z"/>
		<path class="st0" d="M88.4,56.2h3.2l3.7,11.5V68h-2.7l-0.7-2.4H88L87.3,68h-2.5v-0.2L88.4,56.2z M89.9,59l-1.3,4.4h2.6L89.9,59z"
			/>
		<path class="st0" d="M99.4,56.2v9.5h4.6V68h-7.3V56.2H99.4z"/>
		<path class="st0" d="M116.9,56.2v2.2h-5.1v2.5h3.4v2.2h-3.4v2.7h5.3V68h-8V56.2H116.9z"/>
		<path class="st0" d="M120.3,65.7c0.5,0.2,1,0.2,1.6,0.2c0.5,0,0.8-0.1,1.1-0.3c0.3-0.2,0.4-0.5,0.5-0.9c0-0.4-0.1-0.6-0.3-0.8
			c-0.2-0.2-0.5-0.4-0.8-0.5l-1.3-0.5c-0.8-0.3-1.5-0.7-1.9-1.3c-0.5-0.5-0.7-1.3-0.7-2.2c0-0.6,0.1-1.1,0.3-1.5
			c0.2-0.4,0.5-0.8,0.8-1.1c0.4-0.3,0.8-0.5,1.2-0.7c0.5-0.2,1-0.2,1.5-0.2c0.7,0,1.4,0.1,2,0.2c0.6,0.1,1.1,0.3,1.5,0.5l-0.7,2.1
			c-0.1-0.1-0.3-0.1-0.5-0.2c-0.2-0.1-0.4-0.2-0.7-0.2c-0.2-0.1-0.5-0.1-0.7-0.2c-0.2,0-0.5-0.1-0.7-0.1c-0.4,0-0.7,0.1-1,0.3
			c-0.2,0.2-0.4,0.4-0.4,0.8c0,0.4,0.1,0.6,0.3,0.8s0.5,0.4,0.9,0.5l1.5,0.6c0.7,0.3,1.3,0.7,1.7,1.2c0.4,0.5,0.6,1.1,0.6,2
			c0,0.6-0.1,1.2-0.3,1.6s-0.5,0.8-0.9,1.2c-0.4,0.3-0.8,0.6-1.4,0.7c-0.5,0.2-1.1,0.2-1.8,0.2c-0.8,0-1.5-0.1-2.2-0.3
			c-0.6-0.2-1.1-0.4-1.5-0.6l0.7-2C119.4,65.4,119.8,65.6,120.3,65.7z"/>
		<path class="st0" d="M127,58.4v-2.2h8.7v2.2h-3.1V68H130v-9.5H127z"/>
		<path class="st0" d="M138.9,56.2h3.2l3.7,11.5V68H143l-0.7-2.4h-3.8l-0.7,2.4h-2.5v-0.2L138.9,56.2z M140.4,59l-1.3,4.4h2.6
			L140.4,59z"/>
		<path class="st0" d="M151.1,56.2c0.7,0,1.3,0.1,2,0.3c0.6,0.2,1.2,0.5,1.7,0.9c0.5,0.4,0.9,1,1.2,1.8c0.3,0.8,0.4,1.7,0.4,2.9
			s-0.1,2.1-0.4,2.9c-0.3,0.8-0.7,1.4-1.2,1.8c-0.5,0.4-1,0.8-1.7,0.9c-0.6,0.2-1.3,0.3-2,0.3h-3.9V56.2H151.1z M151.9,65.7
			c0.4-0.1,0.7-0.2,0.9-0.5c0.3-0.3,0.5-0.6,0.6-1.1c0.1-0.5,0.2-1.1,0.2-1.9c0-0.8-0.1-1.5-0.2-1.9c-0.1-0.5-0.3-0.9-0.6-1.1
			c-0.3-0.3-0.6-0.4-0.9-0.5c-0.4-0.1-0.8-0.1-1.2-0.1h-0.8v7.4h0.8C151.1,65.8,151.5,65.7,151.9,65.7z"/>
		<path class="st0" d="M161,56.2v7.1c0,0.5,0,1,0.1,1.3c0.1,0.3,0.2,0.6,0.3,0.8c0.2,0.2,0.3,0.3,0.6,0.4c0.2,0.1,0.5,0.1,0.9,0.1
			c0.3,0,0.6,0,0.9-0.1c0.2-0.1,0.4-0.2,0.6-0.4c0.2-0.2,0.3-0.5,0.3-0.8c0.1-0.3,0.1-0.8,0.1-1.3v-7.1h2.7v7.4
			c0,0.9-0.1,1.7-0.4,2.2c-0.2,0.6-0.6,1.1-1,1.4c-0.4,0.3-0.9,0.6-1.5,0.7c-0.6,0.1-1.1,0.2-1.8,0.2c-0.7,0-1.3-0.1-1.8-0.2
			c-0.6-0.1-1.1-0.3-1.5-0.7c-0.4-0.3-0.7-0.8-1-1.4c-0.2-0.6-0.3-1.4-0.3-2.3v-7.4H161z"/>
		<path class="st0" d="M172.3,56.2h3.2l3.7,11.5V68h-2.7l-0.7-2.4h-3.8l-0.7,2.4h-2.5v-0.2L172.3,56.2z M173.8,59l-1.3,4.4h2.6
			L173.8,59z"/>
		<path class="st0" d="M183.3,56.2v9.5h4.6V68h-7.3V56.2H183.3z"/>
		<path class="st0" d="M197.1,56.1c0.7,0,1.4,0.1,2,0.3c0.6,0.2,1.2,0.5,1.7,0.9c0.5,0.4,0.9,1.1,1.2,1.8c0.3,0.8,0.4,1.7,0.4,2.9
			c0,1.2-0.1,2.2-0.4,2.9c-0.3,0.8-0.7,1.4-1.2,1.8c-0.5,0.4-1.1,0.8-1.7,0.9c-0.6,0.2-1.3,0.3-2,0.3h-4V56.1H197.1z M197.8,65.6
			c0.4-0.1,0.7-0.2,1-0.5c0.3-0.3,0.5-0.6,0.6-1.1c0.1-0.5,0.2-1.2,0.2-2s-0.1-1.5-0.2-2c-0.1-0.5-0.3-0.9-0.6-1.1
			c-0.3-0.3-0.6-0.4-1-0.5c-0.4-0.1-0.8-0.1-1.2-0.1h-0.8v7.5h0.8C197.1,65.7,197.5,65.7,197.8,65.6z"/>
		<path class="st0" d="M212.3,56.1v2.2h-5.1v2.5h3.5V63h-3.5v2.7h5.4V68h-8.1V56.1H212.3z"/>
		<path class="st0" d="M217.9,65.9c0.3,0,0.5,0,0.6,0c0.4,0,0.7,0,1-0.1c0.3-0.1,0.4-0.2,0.6-0.5c0.1-0.2,0.2-0.5,0.3-0.8
			c0.1-0.3,0.1-0.7,0.1-1.2v-7.4h2.7v7.9c0,0.6-0.1,1.1-0.2,1.7c-0.1,0.5-0.3,1-0.6,1.4c-0.3,0.4-0.8,0.7-1.4,0.9
			c-0.6,0.2-1.4,0.3-2.3,0.3c-0.3,0-0.6,0-0.9-0.1c-0.3-0.1-0.6-0.1-0.8-0.2l0.3-2.1C217.5,65.8,217.7,65.9,217.9,65.9z"/>
		<path class="st0" d="M228.3,56h3.2l3.7,11.7V68h-2.8l-0.7-2.5h-3.9l-0.7,2.5h-2.6v-0.2L228.3,56z M229.8,58.9l-1.3,4.4h2.6
			L229.8,58.9z"/>
		<path class="st0" d="M241,56.1c1.4,0,2.4,0.3,3.1,1c0.7,0.7,1,1.6,1,2.9c0,1.6-0.6,2.8-1.8,3.4l2.7,4.4V68H243l-2.4-4.2h-1.3V68
			h-2.7V56.1H241z M241.2,61.5c0.2,0,0.4-0.1,0.6-0.2c0.2-0.1,0.3-0.3,0.4-0.5c0.1-0.2,0.1-0.5,0.1-0.8c0-0.3,0-0.6-0.1-0.8
			c-0.1-0.2-0.2-0.4-0.4-0.5c-0.2-0.1-0.4-0.2-0.6-0.2c-0.2,0-0.5-0.1-0.8-0.1h-1v3.3h1C240.7,61.6,241,61.5,241.2,61.5z"/>
		<path class="st0" d="M250,56h3.2l3.7,11.7V68h-2.8l-0.7-2.5h-3.9l-0.7,2.5h-2.6v-0.2L250,56z M251.5,58.9l-1.3,4.4h2.6L251.5,58.9
			z"/>
		<path class="st0" d="M260.7,67.9c-0.6-0.2-1.1-0.6-1.6-1c-0.4-0.5-0.7-1.1-1-1.9c-0.2-0.8-0.3-1.8-0.3-2.9c0-1.2,0.2-2.2,0.5-3
			c0.3-0.8,0.7-1.4,1.2-1.9c0.5-0.5,1.1-0.8,1.7-1c0.6-0.2,1.3-0.3,2-0.3c0.7,0,1.4,0.1,1.9,0.2c0.5,0.1,1,0.3,1.5,0.6l-0.8,2.1
			c-0.4-0.2-0.8-0.4-1.2-0.5c-0.4-0.1-0.9-0.2-1.4-0.2c-0.4,0-0.8,0-1.1,0.1c-0.3,0.1-0.6,0.3-0.8,0.6c-0.2,0.3-0.4,0.7-0.5,1.2
			c-0.1,0.5-0.2,1.2-0.2,2c0,0.8,0.1,1.5,0.2,2c0.1,0.5,0.3,0.9,0.5,1.2c0.2,0.3,0.5,0.5,0.8,0.6c0.3,0.1,0.6,0.2,1,0.2
			c0.3,0,0.6,0,0.9-0.1c0.3-0.1,0.5-0.1,0.7-0.2v-2h-1.5v-2h4.1v6.5h-2l-0.2-0.8c-0.2,0.3-0.6,0.5-1,0.6c-0.4,0.2-0.9,0.3-1.3,0.3
			C262,68.2,261.3,68.1,260.7,67.9z"/>
		<path class="st0" d="M272.1,56.1v7.2c0,0.6,0,1,0.1,1.3c0.1,0.3,0.2,0.6,0.3,0.8c0.2,0.2,0.4,0.3,0.6,0.4c0.2,0.1,0.5,0.1,0.9,0.1
			c0.3,0,0.6,0,0.9-0.1c0.2-0.1,0.4-0.2,0.6-0.4c0.2-0.2,0.3-0.5,0.3-0.8c0.1-0.3,0.1-0.8,0.1-1.3v-7.2h2.7v7.5
			c0,0.9-0.1,1.7-0.4,2.3c-0.2,0.6-0.6,1.1-1,1.4c-0.4,0.4-0.9,0.6-1.5,0.7c-0.6,0.1-1.2,0.2-1.8,0.2c-0.7,0-1.3-0.1-1.9-0.2
			c-0.6-0.1-1.1-0.3-1.5-0.7c-0.4-0.3-0.7-0.8-1-1.4c-0.2-0.6-0.4-1.4-0.4-2.3v-7.5H272.1z"/>
		<path class="st0" d="M283.7,56h3.2l3.7,11.7V68h-2.8l-0.7-2.5h-3.9l-0.7,2.5H280v-0.2L283.7,56z M287.7,51.8h0.3v2l-4.5,1.4h-0.3
			v-1.5L287.7,51.8z M285.2,58.9l-1.3,4.4h2.6L285.2,58.9z"/>
	</g>
	<g>
		<path class="st0" d="M80.7,88.5c0.5,0.2,1,0.3,1.6,0.3c0.3,0,0.6,0,0.9-0.1c0.3-0.1,0.5-0.2,0.7-0.3c0.2-0.2,0.4-0.3,0.5-0.6
			c0.1-0.2,0.2-0.5,0.2-0.9c0-0.6-0.1-1-0.4-1.3c-0.3-0.3-0.7-0.5-1.3-0.7l-1.1-0.4c-0.8-0.3-1.5-0.7-2-1.2s-0.7-1.2-0.7-2
			c0-0.5,0.1-1,0.3-1.4c0.2-0.4,0.4-0.7,0.7-1c0.3-0.3,0.7-0.5,1.1-0.6c0.4-0.1,0.9-0.2,1.4-0.2c0.6,0,1.2,0.1,1.7,0.2
			c0.5,0.1,1,0.3,1.3,0.5l-0.5,1.2c-0.3-0.2-0.7-0.3-1.2-0.5c-0.5-0.1-1-0.2-1.4-0.2c-0.6,0-1.1,0.1-1.4,0.4
			c-0.4,0.3-0.5,0.7-0.5,1.3c0,0.5,0.1,0.9,0.4,1.2c0.2,0.3,0.7,0.6,1.2,0.8l1.5,0.6c0.8,0.3,1.4,0.7,1.8,1.2
			c0.4,0.5,0.6,1.1,0.6,1.9c0,1.1-0.3,1.9-1,2.5c-0.7,0.6-1.6,0.9-2.8,0.9c-0.7,0-1.3-0.1-1.9-0.3c-0.6-0.2-1.1-0.4-1.4-0.7l0.5-1.2
			C79.9,88.1,80.3,88.3,80.7,88.5z"/>
		<path class="st0" d="M91.3,78h1.8l3.7,11.6v0.2h-1.5l-1-3.3H90l-1,3.3h-1.4v-0.2L91.3,78z M92.1,79.6l-1.8,5.8h3.6L92.1,79.6z"/>
		<path class="st0" d="M100.5,78.1l5.6,9.5v-9.5h1.3v11.8h-1.4l-5.8-9.7v9.7H99V78.1H100.5z"/>
		<path class="st0" d="M114.3,78.1c0.7,0,1.3,0.1,1.9,0.3c0.6,0.2,1.1,0.5,1.6,1c0.5,0.5,0.8,1.1,1.1,1.8c0.3,0.8,0.4,1.7,0.4,2.8
			c0,1.1-0.1,2.1-0.4,2.8c-0.3,0.8-0.6,1.4-1.1,1.8c-0.5,0.5-1,0.8-1.6,1c-0.6,0.2-1.2,0.3-1.9,0.3H111V78.1H114.3z M115.6,88.4
			c0.5-0.1,0.8-0.4,1.2-0.7c0.3-0.4,0.6-0.8,0.8-1.4c0.2-0.6,0.3-1.4,0.3-2.3c0-0.9-0.1-1.7-0.3-2.3c-0.2-0.6-0.4-1.1-0.8-1.4
			c-0.3-0.4-0.7-0.6-1.2-0.7c-0.5-0.1-1-0.2-1.5-0.2h-1.6v9.3h1.6C114.6,88.6,115.1,88.5,115.6,88.4z"/>
		<path class="st0" d="M123.5,78.1v11.8h-1.4V78.1H123.5z"/>
		<path class="st0" d="M128.6,78.1l5.6,9.5v-9.5h1.3v11.8h-1.4l-5.8-9.7v9.7h-1.3V78.1H128.6z"/>
		<path class="st0" d="M141.2,89.7c-0.6-0.2-1-0.5-1.5-1s-0.7-1.1-1-1.9c-0.2-0.8-0.4-1.7-0.4-2.9c0-1.1,0.1-2.1,0.4-2.9
			c0.2-0.8,0.6-1.4,1-1.9c0.4-0.5,0.9-0.8,1.5-1c0.6-0.2,1.1-0.3,1.8-0.3c0.6,0,1.2,0.1,1.8,0.3c0.6,0.2,1,0.5,1.5,1
			c0.4,0.5,0.7,1.1,1,1.9c0.2,0.8,0.4,1.7,0.4,2.9c0,1.1-0.1,2.1-0.4,2.8c-0.2,0.8-0.6,1.4-1,1.9c-0.4,0.5-0.9,0.8-1.5,1
			S143.6,90,143,90C142.3,90,141.7,89.9,141.2,89.7z M144.3,88.5c0.4-0.2,0.7-0.4,1-0.8c0.3-0.4,0.5-0.9,0.6-1.5
			c0.1-0.6,0.2-1.4,0.2-2.3s-0.1-1.7-0.2-2.3c-0.1-0.6-0.3-1.1-0.6-1.5c-0.3-0.4-0.6-0.6-1-0.8c-0.4-0.2-0.8-0.2-1.3-0.2
			c-0.5,0-1,0.1-1.3,0.2c-0.4,0.2-0.7,0.4-1,0.8c-0.3,0.4-0.5,0.9-0.6,1.5c-0.1,0.6-0.2,1.4-0.2,2.3s0.1,1.7,0.2,2.3
			c0.1,0.6,0.3,1.1,0.6,1.5c0.3,0.4,0.6,0.6,1,0.8c0.4,0.2,0.8,0.2,1.3,0.2C143.5,88.7,143.9,88.7,144.3,88.5z"/>
		<path class="st0" d="M157.7,78.1c0.7,0,1.3,0.1,1.9,0.3c0.6,0.2,1.1,0.5,1.6,1c0.5,0.5,0.8,1.1,1.1,1.8c0.3,0.8,0.4,1.7,0.4,2.8
			c0,1.1-0.1,2.1-0.4,2.8c-0.3,0.8-0.6,1.4-1.1,1.8c-0.5,0.5-1,0.8-1.6,1c-0.6,0.2-1.2,0.3-1.9,0.3h-3.3V78.1H157.7z M159,88.4
			c0.5-0.1,0.8-0.4,1.2-0.7c0.3-0.4,0.6-0.8,0.8-1.4c0.2-0.6,0.3-1.4,0.3-2.3c0-0.9-0.1-1.7-0.3-2.3c-0.2-0.6-0.4-1.1-0.8-1.4
			c-0.3-0.4-0.7-0.6-1.2-0.7c-0.5-0.1-1-0.2-1.5-0.2h-1.6v9.3h1.6C158,88.6,158.5,88.5,159,88.4z"/>
		<path class="st0" d="M172.5,78.1v1.2h-5.6v3.9h4v1.2h-4v4.2h5.8v1.2h-7.2V78.1H172.5z"/>
		<path class="st0" d="M181.6,78h1.8l3.7,11.6v0.2h-1.5l-1-3.3h-4.3l-1,3.3h-1.4v-0.2L181.6,78z M182.4,79.6l-1.8,5.8h3.6
			L182.4,79.6z"/>
		<path class="st0" d="M191.4,78.1l3.4,8.2l3.4-8.2h2v11.8h-1.3V79.7l-3.6,8.5h-1l-3.6-8.5v10.2h-1.3V78.1H191.4z"/>
		<path class="st0" d="M205.8,89.7c-0.6-0.2-1-0.5-1.5-1s-0.7-1.1-1-1.9c-0.2-0.8-0.4-1.7-0.4-2.9c0-1.1,0.1-2.1,0.4-2.9
			c0.2-0.8,0.6-1.4,1-1.9c0.4-0.5,0.9-0.8,1.5-1c0.6-0.2,1.1-0.3,1.8-0.3c0.6,0,1.2,0.1,1.8,0.3c0.6,0.2,1,0.5,1.5,1
			c0.4,0.5,0.7,1.1,1,1.9c0.2,0.8,0.4,1.7,0.4,2.9c0,1.1-0.1,2.1-0.4,2.8c-0.2,0.8-0.6,1.4-1,1.9c-0.4,0.5-0.9,0.8-1.5,1
			s-1.1,0.3-1.8,0.3C206.9,90,206.3,89.9,205.8,89.7z M208.9,88.5c0.4-0.2,0.7-0.4,1-0.8c0.3-0.4,0.5-0.9,0.6-1.5
			c0.1-0.6,0.2-1.4,0.2-2.3s-0.1-1.7-0.2-2.3c-0.1-0.6-0.3-1.1-0.6-1.5c-0.3-0.4-0.6-0.6-1-0.8c-0.4-0.2-0.8-0.2-1.3-0.2
			c-0.5,0-1,0.1-1.3,0.2c-0.4,0.2-0.7,0.4-1,0.8c-0.3,0.4-0.5,0.9-0.6,1.5c-0.1,0.6-0.2,1.4-0.2,2.3s0.1,1.7,0.2,2.3
			c0.1,0.6,0.3,1.1,0.6,1.5c0.3,0.4,0.6,0.6,1,0.8c0.4,0.2,0.8,0.2,1.3,0.2C208.1,88.7,208.5,88.7,208.9,88.5z"/>
		<path class="st0" d="M218,78.1c0.6,0,1.1,0.1,1.6,0.2c0.5,0.1,0.9,0.4,1.2,0.6c0.3,0.3,0.6,0.7,0.8,1.1s0.3,1,0.3,1.6
			c0,0.9-0.2,1.6-0.6,2.1c-0.4,0.5-0.9,0.9-1.5,1.1l2.9,4.7v0.2h-1.6l-2.7-4.6c-0.1,0-0.2,0-0.3,0h-1.7v4.6h-1.4V78.1H218z
			 M219.7,83.4c0.4-0.4,0.6-1,0.6-1.8c0-0.8-0.2-1.4-0.6-1.8c-0.4-0.4-1-0.6-1.9-0.6h-1.5V84h1.5C218.7,84,219.3,83.8,219.7,83.4z"
			/>
		<path class="st0" d="M226.5,78.1v11.8h-1.4V78.1H226.5z"/>
		<path class="st0" d="M232.2,78.1l3.4,8.2l3.4-8.2h2v11.8h-1.3V79.7l-3.6,8.5h-1l-3.6-8.5v10.2h-1.3V78.1H232.2z"/>
	</g>
</g>
</svg>
